<?xml version="1.0" encoding="utf-8"?>
<!-- Generator: Adobe Illustrator 18.0.0, SVG Export Plug-In . SVG Version: 6.00 Build 0)  -->
<!DOCTYPE svg PUBLIC "-//W3C//DTD SVG 1.1//EN" "http://www.w3.org/Graphics/SVG/1.1/DTD/svg11.dtd">
<svg version="1.1" id="Layer_1" xmlns="http://www.w3.org/2000/svg" xmlns:xlink="http://www.w3.org/1999/xlink" x="0px" y="0px"
	 viewBox="0 0 16 16" enable-background="new 0 0 16 16" xml:space="preserve">
<path fill="#FFF6D3" d="M0,0h16v2h-1v1h-1V2h-1v1h-1V1H4v1H3v1H2V2H1v1H0V0z"/>
<path fill="#22302C" d="M4,1h2v5H4V1z"/>
<path fill="#192C32" d="M6,1h5v5H6V1z"/>
<path d="M11,1h1v5h-1V1z"/>
<path fill="#9D84A0" d="M1,2h1v1H1V2z"/>
<path fill="#9D84A0" d="M3,2h1v1H3V2z"/>
<path fill="#9D84A0" d="M13,2h1v1h-1V2z"/>
<path fill="#9D84A0" d="M15,2h1v1h-1V2z"/>
<path fill="#9D84A0" d="M0,3h1v1h1v1h1V4h1v3H3v1h1v4h1v1h1v1H5v1h2v-1h1v-1h2v1h1v1h2v-1h-1V8h1V7h-1V6h1V5h-1V3h1v1h1v1h1v1h1v10
	H0V6h1V5H0V3z"/>
<path fill="#FFF6D3" d="M1,3h1v1H1V3z"/>
<path fill="#9D84A0" d="M2,3h1v1H2V3z"/>
<path fill="#FFF6D3" d="M3,3h1v1H3V3z"/>
<path fill="#FFF6D3" d="M13,3h1v1h-1V3z"/>
<path fill="#9D84A0" d="M14,3h1v1h-1V3z"/>
<path fill="#FFF6D3" d="M15,3h1v1h-1V3z"/>
<path fill="#FFF6D3" d="M2,4h1v1H2V4z"/>
<path fill="#FFF6D3" d="M14,4h1v1h-1V4z"/>
<path fill="#9D84A0" d="M15,4h1v1h-1V4z"/>
<path fill="#FFF6D3" d="M0,5h1v1H0V5z"/>
<path fill="#FFF6D3" d="M12,5h1v1h-1V5z"/>
<path fill="#FFF6D3" d="M15,5h1v1h-1V5z"/>
<path fill="#8D4343" d="M4,6h2v1H4V6z"/>
<path fill="#7E493C" d="M6,6h5v1H6V6z"/>
<path fill="#6D5334" d="M11,6h1v1h-1V6z"/>
<path fill="#FFF6D3" d="M1,7h1v1H1V7z"/>
<path fill="#22302C" d="M3,7h3v1H3V7z"/>
<path fill="#192C32" d="M6,7h5v1H6V7z"/>
<path d="M11,7h2v1h-2V7z"/>
<path fill="#FFF6D3" d="M14,7h1v1h-1V7z"/>
<path fill="#6AFFA6" d="M4,8h2v1H4V8z"/>
<path fill="#FFD08A" d="M6,8h6v4h-1v-1H7v1H6v1H5v-1H4v-2h1V9h1V8z"/>
<path fill="#C7FF9D" d="M4,9h1v1H4V9z"/>
<path fill="#6AFFA6" d="M7,9h1v1H7V9z"/>
<path fill="#6AFFA6" d="M10,9h1v1h-1V9z"/>
<path fill="#C7FF9D" d="M7,11h1v2H7v2H5v-1h1v-2h1V11z"/>
<path fill="#99FFC2" d="M8,11h1v2H8V11z"/>
<path fill="#6AFFA6" d="M9,11h1v2H9V11z"/>
<path fill="#62ED9A" d="M10,11h1v2h-1V11z"/>
<path fill="#59D7AF" d="M11,12h1v2h-1V12z"/>
<path fill="#99FFC2" d="M7,13h1v1H7V13z"/>
<path fill="#6AFFA6" d="M10,13h1v1h-1V13z"/>
<path fill="#6AFFA6" d="M11,14h1v1h-1V14z"/>
<path fill="#59D7AF" d="M12,14h1v1h-1V14z"/>
</svg>
