<?xml version="1.0" encoding="utf-8"?>
<!-- generated at drububu.com  -->
<!DOCTYPE svg PUBLIC "-//W3C//DTD SVG 1.1//EN" "http://www.w3.org/Graphics/SVG/1.1/DTD/svg11.dtd">
<svg version="1.1" preserveAspectRatio="xMinYMin meet" xmlns="http://www.w3.org/2000/svg" xmlns:xlink="http://www.w3.org/1999/xlink" x="0px" y="0px" width="16px" height="16px" viewBox="0 0 16 16">
<path d="M0 0h16v2h-1v1h-1v-1h-1v1h-1v-2h-8v1h-1v1h-1v-1h-1v1h-1z" fill="rgb(255,246,211)"/>
<path d="M4 1h2v5h-2z" fill="rgb(34,48,44)"/>
<path d="M6 1h5v5h-5z" fill="rgb(25,44,50)"/>
<path d="M11 1h1v5h-1z" fill="rgb(0,0,0)"/>
<path d="M1 2h1v1h-1z" fill="rgb(157,132,160)"/>
<path d="M3 2h1v1h-1z" fill="rgb(157,132,160)"/>
<path d="M13 2h1v1h-1z" fill="rgb(157,132,160)"/>
<path d="M15 2h1v1h-1z" fill="rgb(157,132,160)"/>
<path d="M0 3h1v1h1v1h1v-1h1v3h-1v1h1v4h1v1h1v1h-1v1h2v-1h1v-1h2v1h1v1h2v-1h-1
	v-6h1v-1h-1v-1h1v-1h-1v-2h1v1h1v1h1v1h1v10h-16v-10h1v-1h-1z" fill="rgb(157,132,160)"/>
<path d="M1 3h1v1h-1z" fill="rgb(255,246,211)"/>
<path d="M2 3h1v1h-1z" fill="rgb(157,132,160)"/>
<path d="M3 3h1v1h-1z" fill="rgb(255,246,211)"/>
<path d="M13 3h1v1h-1z" fill="rgb(255,246,211)"/>
<path d="M14 3h1v1h-1z" fill="rgb(157,132,160)"/>
<path d="M15 3h1v1h-1z" fill="rgb(255,246,211)"/>
<path d="M2 4h1v1h-1z" fill="rgb(255,246,211)"/>
<path d="M14 4h1v1h-1z" fill="rgb(255,246,211)"/>
<path d="M15 4h1v1h-1z" fill="rgb(157,132,160)"/>
<path d="M0 5h1v1h-1z" fill="rgb(255,246,211)"/>
<path d="M12 5h1v1h-1z" fill="rgb(255,246,211)"/>
<path d="M15 5h1v1h-1z" fill="rgb(255,246,211)"/>
<path d="M4 6h2v1h-2z" fill="rgb(141,67,67)"/>
<path d="M6 6h5v1h-5z" fill="rgb(126,73,60)"/>
<path d="M11 6h1v1h-1z" fill="rgb(109,83,52)"/>
<path d="M1 7h1v1h-1z" fill="rgb(255,246,211)"/>
<path d="M3 7h3v1h-3z" fill="rgb(34,48,44)"/>
<path d="M6 7h5v1h-5z" fill="rgb(25,44,50)"/>
<path d="M11 7h2v1h-2z" fill="rgb(0,0,0)"/>
<path d="M14 7h1v1h-1z" fill="rgb(255,246,211)"/>
<path d="M4 8h2v1h-2z" fill="rgb(106,255,166)"/>
<path d="M6 8h6v4h-1v-1h-4v1h-1v1h-1v-1h-1v-2h1v-1h1z" fill="rgb(255,208,138)"/>
<path d="M4 9h1v1h-1z" fill="rgb(199,255,157)"/>
<path d="M7 9h1v1h-1z" fill="rgb(106,255,166)"/>
<path d="M10 9h1v1h-1z" fill="rgb(106,255,166)"/>
<path d="M7 11h1v2h-1v2h-2v-1h1v-2h1z" fill="rgb(199,255,157)"/>
<path d="M8 11h1v2h-1z" fill="rgb(153,255,194)"/>
<path d="M9 11h1v2h-1z" fill="rgb(106,255,166)"/>
<path d="M10 11h1v2h-1z" fill="rgb(98,237,154)"/>
<path d="M11 12h1v2h-1z" fill="rgb(89,215,175)"/>
<path d="M7 13h1v1h-1z" fill="rgb(153,255,194)"/>
<path d="M10 13h1v1h-1z" fill="rgb(106,255,166)"/>
<path d="M11 14h1v1h-1z" fill="rgb(106,255,166)"/>
<path d="M12 14h1v1h-1z" fill="rgb(89,215,175)"/>
</svg>
